<?xml version="1.0" encoding="UTF-8" standalone="no"?>
<!-- Generator: Adobe Illustrator 18.0.0, SVG Export Plug-In . SVG Version: 6.00 Build 0)  -->

<svg
   xmlns:dc="http://purl.org/dc/elements/1.1/"
   xmlns:cc="http://creativecommons.org/ns#"
   xmlns:rdf="http://www.w3.org/1999/02/22-rdf-syntax-ns#"
   xmlns:svg="http://www.w3.org/2000/svg"
   xmlns="http://www.w3.org/2000/svg"
   xmlns:sodipodi="http://sodipodi.sourceforge.net/DTD/sodipodi-0.dtd"
   xmlns:inkscape="http://www.inkscape.org/namespaces/inkscape"
   version="1.1"
   id="Layer_1"
   x="0px"
   y="0px"
   viewBox="127.4 141 19 18"
   enable-background="new 127.4 141 145.2 18"
   xml:space="preserve"
   inkscape:version="0.91 r13725"
   sodipodi:docname="Academia.edu_logo.svg"
   width="19"
   height="18"><metadata
     id="metadata3422"><rdf:RDF><cc:Work
         rdf:about=""><dc:format>image/svg+xml</dc:format><dc:type
           rdf:resource="http://purl.org/dc/dcmitype/StillImage" /><dc:title></dc:title></cc:Work></rdf:RDF></metadata><defs
     id="defs3420" /><sodipodi:namedview
     pagecolor="#ffffff"
     bordercolor="#666666"
     borderopacity="1"
     objecttolerance="10"
     gridtolerance="10"
     guidetolerance="10"
     inkscape:pageopacity="0"
     inkscape:pageshadow="2"
     inkscape:window-width="1920"
     inkscape:window-height="990"
     id="namedview3418"
     showgrid="false"
     inkscape:zoom="12.086777"
     inkscape:cx="72.599998"
     inkscape:cy="9"
     inkscape:window-x="0"
     inkscape:window-y="33"
     inkscape:window-maximized="1"
     inkscape:current-layer="g3400" /><g
     id="g3400"><path
       d="m 144.2,156.9 -6.3,-15.8 -4.5,0 0.8,2 -5.4,13.8 c -0.2,0.7 -0.8,0.8 -1.4,0.9 l 0,0.9 5.2,0 0,-0.9 0,0 0,0 0,0 0,0 c -1.4,-0.1 -2.2,-0.3 -1.6,-1.8 0.1,-0.1 0.5,-1.2 1,-2.6 l 6.4,0 0.9,2.3 c 0.1,0.4 0.2,0.7 0.2,1 0,0.8 -0.7,1.1 -2,1.1 l 0,0.9 8.2,0 0,-0.9 c -0.7,-0.1 -1.3,-0.3 -1.5,-0.9 z m -11.6,-5.2 c 1,-2.5 2.1,-5.4 2.5,-6.5 l 2.6,6.5 -5.1,0 z"
       id="path3414"
       inkscape:connector-curvature="0"
       style="fill:#41454a" /></g></svg>