<?xml version="1.0" encoding="UTF-8" standalone="no"?>
<!-- Created with Inkscape (http://www.inkscape.org/) -->

<svg
   xmlns:dc="http://purl.org/dc/elements/1.1/"
   xmlns:cc="http://creativecommons.org/ns#"
   xmlns:rdf="http://www.w3.org/1999/02/22-rdf-syntax-ns#"
   xmlns:svg="http://www.w3.org/2000/svg"
   xmlns="http://www.w3.org/2000/svg"
   xmlns:sodipodi="http://sodipodi.sourceforge.net/DTD/sodipodi-0.dtd"
   xmlns:inkscape="http://www.inkscape.org/namespaces/inkscape"
   width="120"
   height="120"
   viewBox="0 0 119.99999 119.99999"
   id="svg3766"
   version="1.1"
   inkscape:version="0.91 r13725"
   sodipodi:docname="researchgate-icon.svg">
  <defs
     id="defs3768" />
  <sodipodi:namedview
     id="base"
     pagecolor="#ffffff"
     bordercolor="#666666"
     borderopacity="1.0"
     inkscape:pageopacity="0.0"
     inkscape:pageshadow="2"
     inkscape:zoom="2.8"
     inkscape:cx="174.10714"
     inkscape:cy="119.51954"
     inkscape:document-units="px"
     inkscape:current-layer="layer1"
     showgrid="false"
     inkscape:window-width="1920"
     inkscape:window-height="990"
     inkscape:window-x="0"
     inkscape:window-y="33"
     inkscape:window-maximized="1"
     units="px" />
  <metadata
     id="metadata3771">
    <rdf:RDF>
      <cc:Work
         rdf:about="">
        <dc:format>image/svg+xml</dc:format>
        <dc:type
           rdf:resource="http://purl.org/dc/dcmitype/StillImage" />
        <dc:title></dc:title>
      </cc:Work>
    </rdf:RDF>
  </metadata>
  <g
     inkscape:label="Layer 1"
     inkscape:groupmode="layer"
     id="layer1"
     transform="translate(0,-932.36174)">
    <g
       id="g3776"
       transform="matrix(0.06596519,0,0,-0.06596519,-11.139569,1040.7286)">
      <path
         id="path3778"
         d="m 1194.64,23.429 c -93.996,102.282 -219.786,266.57 -324.426,452.286 172.852,40.426 300.852,202.716 300.852,364.858 0,239.002 -185.636,349.93 -428.998,349.93 -125.784,0 -226.144,-6.356 -319.854,-6.356 -85.504,0 -170.934,0 -224.146,2.07 l 0,-61.9301 80.998,-14.856 c 55.712,-10.7159 87.428,-36.1479 87.428,-168.57201 l 0,-840.646 c 0,-132.36 -31.714,-157.93 -87.428,-168.5 l -80.998,-15.14 0,-61.718 c 57.57,2.07001 157.856,6.28999 258.216,6.28999 96,0 219.786,-4.22 273.144,-6.28999 l 0,61.718 -111.002,15.14 c -57.564,8.36 -87.574,36.14 -87.574,168.5 l 0,356.286 c 51.214,-4.28601 96,-4.28601 164.432,-4.28601 130.144,-232.5 253.922,-407.566 324.214,-488.572 64.1379,-76.924 162.216,-125.93 285.996,-125.93 36.22,0 74.584,6.364 98.004,17.144 l 0,55.362 c -76.786,0 -153.57,53.424 -208.86,113.21 z M 684.5,548.287 c -72.572,0 -104.426,1.92999 -153.644,6.56799 l 0,535.36201 c 49.218,4.286 115.214,4.286 172.858,4.286 179.354,0 285.93,-94.004 285.93,-264.572 0,-168.572 -115.142,-281.644 -305.144,-281.644 z m 651.36,538.573 c -2.144,11.212 -4.074,24.2841 -5.786,39.358 -1.7841,15.214 -2.934,33.068 -3.642,54.14 -0.7159,20.926 -1.0019,46.496 -1.0019,75.7841 0,29.432 0.286,54.646 1.0019,75.644 0.71,21.072 1.8581,39.146 3.642,54.214 1.712,15.002 3.642,28.146 5.786,39.358 2.07,11.286 4.7841,22.002 8.288,32.498 18.3521,55.5 48.428,97.214 90.5,125.22 41.998,28 93.498,42.064 154.638,42.064 31.4301,0 59.934,-3.642 85.218,-11.066 25,-7.358 47.426,-17.504 67.21,-30.5 19.5,-12.858 36.36,-28 50.286,-45.144 14.2841,-17.21 25.782,-35.5699 34.786,-55.288 3.4959,-6.282 2.5019,-11.286 -3.0721,-14.782 l -77.642,-31.926 c -6.576,-3.504 -11.212,-1.718 -14.8621,5.2159 -17.422,32.286 -32.286,53.496 -56.708,68.922 -24.714,15.36 -47.572,22.646 -85.218,22.646 -40.9301,0 -59.2159,-8.14 -84.854,-26.5 -25.432,-18 -44.076,-40.646 -55.076,-75.14 -2.208,-6.218 -4.214,-13.934 -6.568,-23.004 -1.93,-9.2159 -3.504,-20.502 -4.498,-33.712 -1.002,-13.2159 -1.9301,-29.572 -2.786,-48.86 -0.57,-19.288 -0.856,-42.7159 -0.856,-69.858 0,-27.282 0.286,-50.71 0.856,-69.998 0.8559,-19.214 1.784,-35.5699 2.786,-48.786 0.994,-13.356 2.568,-24.568 4.498,-33.858 2.356,-8.93 4.36,-16.64 6.568,-22.9301 11,-34.356 26.72,-53.1379 49.8621,-68.214 22.858,-15.28596 49.1379,-26.28796 90.068,-26.28796 36.36,0 69.646,10.358 91.356,26.14796 21.504,15.7841 39.358,36.6379 47.36,65.142 3.5041,12.002 8.002,26.932 11.074,45.2159 2.786,18.286 2.786,37.64 2.786,64.3521 0,4.22 -2.362,6.3641 -6.29,6.3641 l -124.358,0 c -7,0 -10.4301,3.4239 -10.4301,10.422 l 0,71.286 c 0,7.072 3.4301,10.504 10.4301,10.504 l 228.214,0 c 7.146,0 10.504,-3.4301 10.504,-10.504 l 0,-60.928 c 0,-32.286 0,-62.2159 -3.358,-89.9301 -3.218,-27.714 -7.57,-51.712 -13.0699,-69.208 -17.4301,-54.792 -45.0699,-93.79205 -87.428,-122.85805 -42.504,-29.286 -97.288,-45.07 -156.79,-45.07 -61.14,0 -112.64,14.066 -154.638,41.998 -42.072,28.284 -72.1479,69.786 -90.5,125.28605 -3.5041,10.496 -6.218,21.2841 -8.2858,32.5703 z"
         inkscape:connector-curvature="0"
         style="fill:currentColor" />
    </g>
  </g>
</svg>
